%TF.GenerationSoftware,KiCad,Pcbnew,(5.1.6)-1*%
%TF.CreationDate,2021-09-24T15:49:20-04:00*%
%TF.ProjectId,USB-Data-Only,5553422d-4461-4746-912d-4f6e6c792e6b,rev?*%
%TF.SameCoordinates,Original*%
%TF.FileFunction,Copper,L1,Top*%
%TF.FilePolarity,Positive*%
%FSLAX46Y46*%
G04 Gerber Fmt 4.6, Leading zero omitted, Abs format (unit mm)*
G04 Created by KiCad (PCBNEW (5.1.6)-1) date 2021-09-24 15:49:20*
%MOMM*%
%LPD*%
G01*
G04 APERTURE LIST*
%TA.AperFunction,ComponentPad*%
%ADD10C,1.550000*%
%TD*%
%TA.AperFunction,ComponentPad*%
%ADD11C,1.850000*%
%TD*%
%TA.AperFunction,ComponentPad*%
%ADD12C,4.000000*%
%TD*%
%TA.AperFunction,ComponentPad*%
%ADD13C,1.500000*%
%TD*%
%TA.AperFunction,ComponentPad*%
%ADD14C,3.570000*%
%TD*%
%TA.AperFunction,Conductor*%
%ADD15C,0.500000*%
%TD*%
%TA.AperFunction,Conductor*%
%ADD16C,0.254000*%
%TD*%
G04 APERTURE END LIST*
D10*
%TO.P,J1,1*%
%TO.N,Net-(J1-Pad1)*%
X148424000Y-76779000D03*
%TO.P,J1,2*%
%TO.N,D-*%
X148424000Y-74279000D03*
%TO.P,J1,3*%
%TO.N,D+*%
X148424000Y-72279000D03*
%TO.P,J1,4*%
%TO.N,GND*%
X148424000Y-69779000D03*
D11*
%TO.P,J1,5*%
%TO.N,N/C*%
X146324000Y-70979000D03*
%TO.P,J1,6*%
X146324000Y-75579000D03*
D12*
%TO.P,J1,7*%
%TO.N,GND*%
X146324000Y-79129000D03*
%TO.P,J1,8*%
X146324000Y-67429000D03*
%TD*%
D13*
%TO.P,J2,1*%
%TO.N,Net-(J2-Pad1)*%
X158495001Y-76768001D03*
%TO.P,J2,2*%
%TO.N,D-*%
X158495001Y-74268001D03*
%TO.P,J2,3*%
%TO.N,D+*%
X158495001Y-72268001D03*
%TO.P,J2,4*%
%TO.N,GND*%
X158495001Y-69768001D03*
D14*
%TO.P,J2,MH1*%
X161205001Y-79838001D03*
%TO.P,J2,MH2*%
X161205001Y-66698001D03*
%TD*%
D15*
%TO.N,D-*%
X158484002Y-74279000D02*
X158495001Y-74268001D01*
X148424000Y-74279000D02*
X158484002Y-74279000D01*
%TO.N,D+*%
X158484002Y-72279000D02*
X158495001Y-72268001D01*
X148424000Y-72279000D02*
X158484002Y-72279000D01*
%TD*%
D16*
%TO.N,GND*%
G36*
X159880374Y-64658744D02*
G01*
X159690090Y-65003485D01*
X161205001Y-66518396D01*
X162719912Y-65003485D01*
X162529628Y-64658744D01*
X162302295Y-64541000D01*
X163551001Y-64541000D01*
X163551001Y-66089953D01*
X163439338Y-65738345D01*
X163244258Y-65373374D01*
X162899517Y-65183090D01*
X161384606Y-66698001D01*
X162899517Y-68212912D01*
X163244258Y-68022628D01*
X163463496Y-67599336D01*
X163551001Y-67296787D01*
X163551000Y-79229951D01*
X163439338Y-78878345D01*
X163244258Y-78513374D01*
X162899517Y-78323090D01*
X161384606Y-79838001D01*
X162899517Y-81352912D01*
X163244258Y-81162628D01*
X163463496Y-80739336D01*
X163551000Y-80436790D01*
X163551000Y-81890000D01*
X162505789Y-81890000D01*
X162529628Y-81877258D01*
X162719912Y-81532517D01*
X161205001Y-80017606D01*
X159690090Y-81532517D01*
X159880374Y-81877258D01*
X159904976Y-81890000D01*
X144043000Y-81890000D01*
X144043000Y-80976499D01*
X144656106Y-80976499D01*
X144872228Y-81343258D01*
X145332105Y-81583938D01*
X145830098Y-81730275D01*
X146347071Y-81776648D01*
X146863159Y-81721273D01*
X147358526Y-81566279D01*
X147775772Y-81343258D01*
X147991894Y-80976499D01*
X146324000Y-79308605D01*
X144656106Y-80976499D01*
X144043000Y-80976499D01*
X144043000Y-80455906D01*
X144109742Y-80580772D01*
X144476501Y-80796894D01*
X146144395Y-79129000D01*
X144476501Y-77461106D01*
X144109742Y-77677228D01*
X144043000Y-77804755D01*
X144043000Y-69276499D01*
X144656106Y-69276499D01*
X144872228Y-69643258D01*
X145253846Y-69842981D01*
X145112269Y-69984558D01*
X144941546Y-70240063D01*
X144823950Y-70523965D01*
X144764000Y-70825353D01*
X144764000Y-71132647D01*
X144823950Y-71434035D01*
X144941546Y-71717937D01*
X145112269Y-71973442D01*
X145329558Y-72190731D01*
X145585063Y-72361454D01*
X145868965Y-72479050D01*
X146170353Y-72539000D01*
X146477647Y-72539000D01*
X146779035Y-72479050D01*
X147014000Y-72381724D01*
X147014000Y-72417873D01*
X147068186Y-72690282D01*
X147174475Y-72946885D01*
X147328782Y-73177822D01*
X147429960Y-73279000D01*
X147328782Y-73380178D01*
X147174475Y-73611115D01*
X147068186Y-73867718D01*
X147014000Y-74140127D01*
X147014000Y-74176276D01*
X146779035Y-74078950D01*
X146477647Y-74019000D01*
X146170353Y-74019000D01*
X145868965Y-74078950D01*
X145585063Y-74196546D01*
X145329558Y-74367269D01*
X145112269Y-74584558D01*
X144941546Y-74840063D01*
X144823950Y-75123965D01*
X144764000Y-75425353D01*
X144764000Y-75732647D01*
X144823950Y-76034035D01*
X144941546Y-76317937D01*
X145112269Y-76573442D01*
X145251073Y-76712246D01*
X144872228Y-76914742D01*
X144656106Y-77281501D01*
X146324000Y-78949395D01*
X146338143Y-78935253D01*
X146517748Y-79114858D01*
X146503605Y-79129000D01*
X148171499Y-80796894D01*
X148538258Y-80580772D01*
X148778938Y-80120895D01*
X148852792Y-79869565D01*
X158773498Y-79869565D01*
X158826377Y-80343321D01*
X158970664Y-80797657D01*
X159165744Y-81162628D01*
X159510485Y-81352912D01*
X161025396Y-79838001D01*
X159510485Y-78323090D01*
X159165744Y-78513374D01*
X158946506Y-78936666D01*
X158814061Y-79394596D01*
X158773498Y-79869565D01*
X148852792Y-79869565D01*
X148925275Y-79622902D01*
X148971648Y-79105929D01*
X148916273Y-78589841D01*
X148777497Y-78146308D01*
X148835282Y-78134814D01*
X149091885Y-78028525D01*
X149322822Y-77874218D01*
X149519218Y-77677822D01*
X149673525Y-77446885D01*
X149779814Y-77190282D01*
X149834000Y-76917873D01*
X149834000Y-76640127D01*
X149779814Y-76367718D01*
X149673525Y-76111115D01*
X149519218Y-75880178D01*
X149322822Y-75683782D01*
X149091885Y-75529475D01*
X149090738Y-75529000D01*
X149091885Y-75528525D01*
X149322822Y-75374218D01*
X149519218Y-75177822D01*
X149528454Y-75164000D01*
X157432315Y-75164000D01*
X157612115Y-75343800D01*
X157838958Y-75495372D01*
X157893589Y-75518001D01*
X157838958Y-75540630D01*
X157612115Y-75692202D01*
X157419202Y-75885115D01*
X157267630Y-76111958D01*
X157163226Y-76364012D01*
X157110001Y-76631590D01*
X157110001Y-76904412D01*
X157163226Y-77171990D01*
X157267630Y-77424044D01*
X157419202Y-77650887D01*
X157612115Y-77843800D01*
X157838958Y-77995372D01*
X158091012Y-78099776D01*
X158358590Y-78153001D01*
X158631412Y-78153001D01*
X158679251Y-78143485D01*
X159690090Y-78143485D01*
X161205001Y-79658396D01*
X162719912Y-78143485D01*
X162529628Y-77798744D01*
X162106336Y-77579506D01*
X161648406Y-77447061D01*
X161173437Y-77406498D01*
X160699681Y-77459377D01*
X160245345Y-77603664D01*
X159880374Y-77798744D01*
X159690090Y-78143485D01*
X158679251Y-78143485D01*
X158898990Y-78099776D01*
X159151044Y-77995372D01*
X159377887Y-77843800D01*
X159570800Y-77650887D01*
X159722372Y-77424044D01*
X159826776Y-77171990D01*
X159880001Y-76904412D01*
X159880001Y-76631590D01*
X159826776Y-76364012D01*
X159722372Y-76111958D01*
X159570800Y-75885115D01*
X159377887Y-75692202D01*
X159151044Y-75540630D01*
X159096413Y-75518001D01*
X159151044Y-75495372D01*
X159377887Y-75343800D01*
X159570800Y-75150887D01*
X159722372Y-74924044D01*
X159826776Y-74671990D01*
X159880001Y-74404412D01*
X159880001Y-74131590D01*
X159826776Y-73864012D01*
X159722372Y-73611958D01*
X159570800Y-73385115D01*
X159453686Y-73268001D01*
X159570800Y-73150887D01*
X159722372Y-72924044D01*
X159826776Y-72671990D01*
X159880001Y-72404412D01*
X159880001Y-72131590D01*
X159826776Y-71864012D01*
X159722372Y-71611958D01*
X159570800Y-71385115D01*
X159377887Y-71192202D01*
X159151044Y-71040630D01*
X159101575Y-71020140D01*
X159206864Y-70963861D01*
X159272389Y-70724994D01*
X158495001Y-69947606D01*
X157717613Y-70724994D01*
X157783138Y-70963861D01*
X157896202Y-71016919D01*
X157838958Y-71040630D01*
X157612115Y-71192202D01*
X157419202Y-71385115D01*
X157413265Y-71394000D01*
X149528454Y-71394000D01*
X149519218Y-71380178D01*
X149322822Y-71183782D01*
X149091885Y-71029475D01*
X149088960Y-71028263D01*
X149150690Y-70995268D01*
X149219244Y-70753849D01*
X148424000Y-69958605D01*
X148409858Y-69972748D01*
X148230253Y-69793143D01*
X148244395Y-69779000D01*
X148603605Y-69779000D01*
X149398849Y-70574244D01*
X149640268Y-70505690D01*
X149758668Y-70254444D01*
X149825778Y-69984929D01*
X149832671Y-69840493D01*
X157105189Y-69840493D01*
X157146036Y-70110239D01*
X157238724Y-70366833D01*
X157299141Y-70479864D01*
X157538008Y-70545389D01*
X158315396Y-69768001D01*
X158674606Y-69768001D01*
X159451994Y-70545389D01*
X159690861Y-70479864D01*
X159806761Y-70232885D01*
X159872251Y-69968041D01*
X159884813Y-69695509D01*
X159843966Y-69425763D01*
X159751278Y-69169169D01*
X159690861Y-69056138D01*
X159451994Y-68990613D01*
X158674606Y-69768001D01*
X158315396Y-69768001D01*
X157538008Y-68990613D01*
X157299141Y-69056138D01*
X157183241Y-69303117D01*
X157117751Y-69567961D01*
X157105189Y-69840493D01*
X149832671Y-69840493D01*
X149839018Y-69707498D01*
X149797879Y-69432816D01*
X149703943Y-69171438D01*
X149640268Y-69052310D01*
X149398849Y-68983756D01*
X148603605Y-69779000D01*
X148244395Y-69779000D01*
X148230253Y-69764858D01*
X148409858Y-69585253D01*
X148424000Y-69599395D01*
X149212387Y-68811008D01*
X157717613Y-68811008D01*
X158495001Y-69588396D01*
X159272389Y-68811008D01*
X159206864Y-68572141D01*
X158959885Y-68456241D01*
X158702183Y-68392517D01*
X159690090Y-68392517D01*
X159880374Y-68737258D01*
X160303666Y-68956496D01*
X160761596Y-69088941D01*
X161236565Y-69129504D01*
X161710321Y-69076625D01*
X162164657Y-68932338D01*
X162529628Y-68737258D01*
X162719912Y-68392517D01*
X161205001Y-66877606D01*
X159690090Y-68392517D01*
X158702183Y-68392517D01*
X158695041Y-68390751D01*
X158422509Y-68378189D01*
X158152763Y-68419036D01*
X157896169Y-68511724D01*
X157783138Y-68572141D01*
X157717613Y-68811008D01*
X149212387Y-68811008D01*
X149219244Y-68804151D01*
X149150690Y-68562732D01*
X148899444Y-68444332D01*
X148780737Y-68414774D01*
X148925275Y-67922902D01*
X148971648Y-67405929D01*
X148916273Y-66889841D01*
X148866125Y-66729565D01*
X158773498Y-66729565D01*
X158826377Y-67203321D01*
X158970664Y-67657657D01*
X159165744Y-68022628D01*
X159510485Y-68212912D01*
X161025396Y-66698001D01*
X159510485Y-65183090D01*
X159165744Y-65373374D01*
X158946506Y-65796666D01*
X158814061Y-66254596D01*
X158773498Y-66729565D01*
X148866125Y-66729565D01*
X148761279Y-66394474D01*
X148538258Y-65977228D01*
X148171499Y-65761106D01*
X146503605Y-67429000D01*
X146517748Y-67443143D01*
X146338143Y-67622748D01*
X146324000Y-67608605D01*
X144656106Y-69276499D01*
X144043000Y-69276499D01*
X144043000Y-68755906D01*
X144109742Y-68880772D01*
X144476501Y-69096894D01*
X146144395Y-67429000D01*
X144476501Y-65761106D01*
X144109742Y-65977228D01*
X144043000Y-66104755D01*
X144043000Y-65581501D01*
X144656106Y-65581501D01*
X146324000Y-67249395D01*
X147991894Y-65581501D01*
X147775772Y-65214742D01*
X147315895Y-64974062D01*
X146817902Y-64827725D01*
X146300929Y-64781352D01*
X145784841Y-64836727D01*
X145289474Y-64991721D01*
X144872228Y-65214742D01*
X144656106Y-65581501D01*
X144043000Y-65581501D01*
X144043000Y-64541000D01*
X160100659Y-64541000D01*
X159880374Y-64658744D01*
G37*
X159880374Y-64658744D02*
X159690090Y-65003485D01*
X161205001Y-66518396D01*
X162719912Y-65003485D01*
X162529628Y-64658744D01*
X162302295Y-64541000D01*
X163551001Y-64541000D01*
X163551001Y-66089953D01*
X163439338Y-65738345D01*
X163244258Y-65373374D01*
X162899517Y-65183090D01*
X161384606Y-66698001D01*
X162899517Y-68212912D01*
X163244258Y-68022628D01*
X163463496Y-67599336D01*
X163551001Y-67296787D01*
X163551000Y-79229951D01*
X163439338Y-78878345D01*
X163244258Y-78513374D01*
X162899517Y-78323090D01*
X161384606Y-79838001D01*
X162899517Y-81352912D01*
X163244258Y-81162628D01*
X163463496Y-80739336D01*
X163551000Y-80436790D01*
X163551000Y-81890000D01*
X162505789Y-81890000D01*
X162529628Y-81877258D01*
X162719912Y-81532517D01*
X161205001Y-80017606D01*
X159690090Y-81532517D01*
X159880374Y-81877258D01*
X159904976Y-81890000D01*
X144043000Y-81890000D01*
X144043000Y-80976499D01*
X144656106Y-80976499D01*
X144872228Y-81343258D01*
X145332105Y-81583938D01*
X145830098Y-81730275D01*
X146347071Y-81776648D01*
X146863159Y-81721273D01*
X147358526Y-81566279D01*
X147775772Y-81343258D01*
X147991894Y-80976499D01*
X146324000Y-79308605D01*
X144656106Y-80976499D01*
X144043000Y-80976499D01*
X144043000Y-80455906D01*
X144109742Y-80580772D01*
X144476501Y-80796894D01*
X146144395Y-79129000D01*
X144476501Y-77461106D01*
X144109742Y-77677228D01*
X144043000Y-77804755D01*
X144043000Y-69276499D01*
X144656106Y-69276499D01*
X144872228Y-69643258D01*
X145253846Y-69842981D01*
X145112269Y-69984558D01*
X144941546Y-70240063D01*
X144823950Y-70523965D01*
X144764000Y-70825353D01*
X144764000Y-71132647D01*
X144823950Y-71434035D01*
X144941546Y-71717937D01*
X145112269Y-71973442D01*
X145329558Y-72190731D01*
X145585063Y-72361454D01*
X145868965Y-72479050D01*
X146170353Y-72539000D01*
X146477647Y-72539000D01*
X146779035Y-72479050D01*
X147014000Y-72381724D01*
X147014000Y-72417873D01*
X147068186Y-72690282D01*
X147174475Y-72946885D01*
X147328782Y-73177822D01*
X147429960Y-73279000D01*
X147328782Y-73380178D01*
X147174475Y-73611115D01*
X147068186Y-73867718D01*
X147014000Y-74140127D01*
X147014000Y-74176276D01*
X146779035Y-74078950D01*
X146477647Y-74019000D01*
X146170353Y-74019000D01*
X145868965Y-74078950D01*
X145585063Y-74196546D01*
X145329558Y-74367269D01*
X145112269Y-74584558D01*
X144941546Y-74840063D01*
X144823950Y-75123965D01*
X144764000Y-75425353D01*
X144764000Y-75732647D01*
X144823950Y-76034035D01*
X144941546Y-76317937D01*
X145112269Y-76573442D01*
X145251073Y-76712246D01*
X144872228Y-76914742D01*
X144656106Y-77281501D01*
X146324000Y-78949395D01*
X146338143Y-78935253D01*
X146517748Y-79114858D01*
X146503605Y-79129000D01*
X148171499Y-80796894D01*
X148538258Y-80580772D01*
X148778938Y-80120895D01*
X148852792Y-79869565D01*
X158773498Y-79869565D01*
X158826377Y-80343321D01*
X158970664Y-80797657D01*
X159165744Y-81162628D01*
X159510485Y-81352912D01*
X161025396Y-79838001D01*
X159510485Y-78323090D01*
X159165744Y-78513374D01*
X158946506Y-78936666D01*
X158814061Y-79394596D01*
X158773498Y-79869565D01*
X148852792Y-79869565D01*
X148925275Y-79622902D01*
X148971648Y-79105929D01*
X148916273Y-78589841D01*
X148777497Y-78146308D01*
X148835282Y-78134814D01*
X149091885Y-78028525D01*
X149322822Y-77874218D01*
X149519218Y-77677822D01*
X149673525Y-77446885D01*
X149779814Y-77190282D01*
X149834000Y-76917873D01*
X149834000Y-76640127D01*
X149779814Y-76367718D01*
X149673525Y-76111115D01*
X149519218Y-75880178D01*
X149322822Y-75683782D01*
X149091885Y-75529475D01*
X149090738Y-75529000D01*
X149091885Y-75528525D01*
X149322822Y-75374218D01*
X149519218Y-75177822D01*
X149528454Y-75164000D01*
X157432315Y-75164000D01*
X157612115Y-75343800D01*
X157838958Y-75495372D01*
X157893589Y-75518001D01*
X157838958Y-75540630D01*
X157612115Y-75692202D01*
X157419202Y-75885115D01*
X157267630Y-76111958D01*
X157163226Y-76364012D01*
X157110001Y-76631590D01*
X157110001Y-76904412D01*
X157163226Y-77171990D01*
X157267630Y-77424044D01*
X157419202Y-77650887D01*
X157612115Y-77843800D01*
X157838958Y-77995372D01*
X158091012Y-78099776D01*
X158358590Y-78153001D01*
X158631412Y-78153001D01*
X158679251Y-78143485D01*
X159690090Y-78143485D01*
X161205001Y-79658396D01*
X162719912Y-78143485D01*
X162529628Y-77798744D01*
X162106336Y-77579506D01*
X161648406Y-77447061D01*
X161173437Y-77406498D01*
X160699681Y-77459377D01*
X160245345Y-77603664D01*
X159880374Y-77798744D01*
X159690090Y-78143485D01*
X158679251Y-78143485D01*
X158898990Y-78099776D01*
X159151044Y-77995372D01*
X159377887Y-77843800D01*
X159570800Y-77650887D01*
X159722372Y-77424044D01*
X159826776Y-77171990D01*
X159880001Y-76904412D01*
X159880001Y-76631590D01*
X159826776Y-76364012D01*
X159722372Y-76111958D01*
X159570800Y-75885115D01*
X159377887Y-75692202D01*
X159151044Y-75540630D01*
X159096413Y-75518001D01*
X159151044Y-75495372D01*
X159377887Y-75343800D01*
X159570800Y-75150887D01*
X159722372Y-74924044D01*
X159826776Y-74671990D01*
X159880001Y-74404412D01*
X159880001Y-74131590D01*
X159826776Y-73864012D01*
X159722372Y-73611958D01*
X159570800Y-73385115D01*
X159453686Y-73268001D01*
X159570800Y-73150887D01*
X159722372Y-72924044D01*
X159826776Y-72671990D01*
X159880001Y-72404412D01*
X159880001Y-72131590D01*
X159826776Y-71864012D01*
X159722372Y-71611958D01*
X159570800Y-71385115D01*
X159377887Y-71192202D01*
X159151044Y-71040630D01*
X159101575Y-71020140D01*
X159206864Y-70963861D01*
X159272389Y-70724994D01*
X158495001Y-69947606D01*
X157717613Y-70724994D01*
X157783138Y-70963861D01*
X157896202Y-71016919D01*
X157838958Y-71040630D01*
X157612115Y-71192202D01*
X157419202Y-71385115D01*
X157413265Y-71394000D01*
X149528454Y-71394000D01*
X149519218Y-71380178D01*
X149322822Y-71183782D01*
X149091885Y-71029475D01*
X149088960Y-71028263D01*
X149150690Y-70995268D01*
X149219244Y-70753849D01*
X148424000Y-69958605D01*
X148409858Y-69972748D01*
X148230253Y-69793143D01*
X148244395Y-69779000D01*
X148603605Y-69779000D01*
X149398849Y-70574244D01*
X149640268Y-70505690D01*
X149758668Y-70254444D01*
X149825778Y-69984929D01*
X149832671Y-69840493D01*
X157105189Y-69840493D01*
X157146036Y-70110239D01*
X157238724Y-70366833D01*
X157299141Y-70479864D01*
X157538008Y-70545389D01*
X158315396Y-69768001D01*
X158674606Y-69768001D01*
X159451994Y-70545389D01*
X159690861Y-70479864D01*
X159806761Y-70232885D01*
X159872251Y-69968041D01*
X159884813Y-69695509D01*
X159843966Y-69425763D01*
X159751278Y-69169169D01*
X159690861Y-69056138D01*
X159451994Y-68990613D01*
X158674606Y-69768001D01*
X158315396Y-69768001D01*
X157538008Y-68990613D01*
X157299141Y-69056138D01*
X157183241Y-69303117D01*
X157117751Y-69567961D01*
X157105189Y-69840493D01*
X149832671Y-69840493D01*
X149839018Y-69707498D01*
X149797879Y-69432816D01*
X149703943Y-69171438D01*
X149640268Y-69052310D01*
X149398849Y-68983756D01*
X148603605Y-69779000D01*
X148244395Y-69779000D01*
X148230253Y-69764858D01*
X148409858Y-69585253D01*
X148424000Y-69599395D01*
X149212387Y-68811008D01*
X157717613Y-68811008D01*
X158495001Y-69588396D01*
X159272389Y-68811008D01*
X159206864Y-68572141D01*
X158959885Y-68456241D01*
X158702183Y-68392517D01*
X159690090Y-68392517D01*
X159880374Y-68737258D01*
X160303666Y-68956496D01*
X160761596Y-69088941D01*
X161236565Y-69129504D01*
X161710321Y-69076625D01*
X162164657Y-68932338D01*
X162529628Y-68737258D01*
X162719912Y-68392517D01*
X161205001Y-66877606D01*
X159690090Y-68392517D01*
X158702183Y-68392517D01*
X158695041Y-68390751D01*
X158422509Y-68378189D01*
X158152763Y-68419036D01*
X157896169Y-68511724D01*
X157783138Y-68572141D01*
X157717613Y-68811008D01*
X149212387Y-68811008D01*
X149219244Y-68804151D01*
X149150690Y-68562732D01*
X148899444Y-68444332D01*
X148780737Y-68414774D01*
X148925275Y-67922902D01*
X148971648Y-67405929D01*
X148916273Y-66889841D01*
X148866125Y-66729565D01*
X158773498Y-66729565D01*
X158826377Y-67203321D01*
X158970664Y-67657657D01*
X159165744Y-68022628D01*
X159510485Y-68212912D01*
X161025396Y-66698001D01*
X159510485Y-65183090D01*
X159165744Y-65373374D01*
X158946506Y-65796666D01*
X158814061Y-66254596D01*
X158773498Y-66729565D01*
X148866125Y-66729565D01*
X148761279Y-66394474D01*
X148538258Y-65977228D01*
X148171499Y-65761106D01*
X146503605Y-67429000D01*
X146517748Y-67443143D01*
X146338143Y-67622748D01*
X146324000Y-67608605D01*
X144656106Y-69276499D01*
X144043000Y-69276499D01*
X144043000Y-68755906D01*
X144109742Y-68880772D01*
X144476501Y-69096894D01*
X146144395Y-67429000D01*
X144476501Y-65761106D01*
X144109742Y-65977228D01*
X144043000Y-66104755D01*
X144043000Y-65581501D01*
X144656106Y-65581501D01*
X146324000Y-67249395D01*
X147991894Y-65581501D01*
X147775772Y-65214742D01*
X147315895Y-64974062D01*
X146817902Y-64827725D01*
X146300929Y-64781352D01*
X145784841Y-64836727D01*
X145289474Y-64991721D01*
X144872228Y-65214742D01*
X144656106Y-65581501D01*
X144043000Y-65581501D01*
X144043000Y-64541000D01*
X160100659Y-64541000D01*
X159880374Y-64658744D01*
%TD*%
M02*
