%TF.GenerationSoftware,KiCad,Pcbnew,(5.1.6)-1*%
%TF.CreationDate,2021-09-24T15:49:20-04:00*%
%TF.ProjectId,USB-Data-Only,5553422d-4461-4746-912d-4f6e6c792e6b,rev?*%
%TF.SameCoordinates,Original*%
%TF.FileFunction,Legend,Top*%
%TF.FilePolarity,Positive*%
%FSLAX46Y46*%
G04 Gerber Fmt 4.6, Leading zero omitted, Abs format (unit mm)*
G04 Created by KiCad (PCBNEW (5.1.6)-1) date 2021-09-24 15:49:20*
%MOMM*%
%LPD*%
G01*
G04 APERTURE LIST*
%ADD10C,0.150000*%
%ADD11C,0.125000*%
%ADD12C,0.250000*%
%ADD13C,0.200000*%
%ADD14C,0.100000*%
%ADD15C,0.254000*%
G04 APERTURE END LIST*
D10*
X147709666Y-81446714D02*
X147900142Y-82113380D01*
X148090619Y-81637190D01*
X148281095Y-82113380D01*
X148471571Y-81446714D01*
X148852523Y-82113380D02*
X148852523Y-81446714D01*
X148852523Y-81113380D02*
X148804904Y-81161000D01*
X148852523Y-81208619D01*
X148900142Y-81161000D01*
X148852523Y-81113380D01*
X148852523Y-81208619D01*
X149328714Y-82113380D02*
X149328714Y-81446714D01*
X149328714Y-81637190D02*
X149376333Y-81541952D01*
X149423952Y-81494333D01*
X149519190Y-81446714D01*
X149614428Y-81446714D01*
X150328714Y-82065761D02*
X150233476Y-82113380D01*
X150043000Y-82113380D01*
X149947761Y-82065761D01*
X149900142Y-81970523D01*
X149900142Y-81589571D01*
X149947761Y-81494333D01*
X150043000Y-81446714D01*
X150233476Y-81446714D01*
X150328714Y-81494333D01*
X150376333Y-81589571D01*
X150376333Y-81684809D01*
X149900142Y-81780047D01*
X150662047Y-81446714D02*
X151043000Y-81446714D01*
X150804904Y-81113380D02*
X150804904Y-81970523D01*
X150852523Y-82065761D01*
X150947761Y-82113380D01*
X151043000Y-82113380D01*
X151804904Y-82113380D02*
X151804904Y-81589571D01*
X151757285Y-81494333D01*
X151662047Y-81446714D01*
X151471571Y-81446714D01*
X151376333Y-81494333D01*
X151804904Y-82065761D02*
X151709666Y-82113380D01*
X151471571Y-82113380D01*
X151376333Y-82065761D01*
X151328714Y-81970523D01*
X151328714Y-81875285D01*
X151376333Y-81780047D01*
X151471571Y-81732428D01*
X151709666Y-81732428D01*
X151804904Y-81684809D01*
X152281095Y-81446714D02*
X152281095Y-82446714D01*
X152281095Y-81494333D02*
X152376333Y-81446714D01*
X152566809Y-81446714D01*
X152662047Y-81494333D01*
X152709666Y-81541952D01*
X152757285Y-81637190D01*
X152757285Y-81922904D01*
X152709666Y-82018142D01*
X152662047Y-82065761D01*
X152566809Y-82113380D01*
X152376333Y-82113380D01*
X152281095Y-82065761D01*
X153947761Y-81732428D02*
X154709666Y-81732428D01*
X155900142Y-81208619D02*
X155947761Y-81161000D01*
X156043000Y-81113380D01*
X156281095Y-81113380D01*
X156376333Y-81161000D01*
X156423952Y-81208619D01*
X156471571Y-81303857D01*
X156471571Y-81399095D01*
X156423952Y-81541952D01*
X155852523Y-82113380D01*
X156471571Y-82113380D01*
X157090619Y-81113380D02*
X157185857Y-81113380D01*
X157281095Y-81161000D01*
X157328714Y-81208619D01*
X157376333Y-81303857D01*
X157423952Y-81494333D01*
X157423952Y-81732428D01*
X157376333Y-81922904D01*
X157328714Y-82018142D01*
X157281095Y-82065761D01*
X157185857Y-82113380D01*
X157090619Y-82113380D01*
X156995380Y-82065761D01*
X156947761Y-82018142D01*
X156900142Y-81922904D01*
X156852523Y-81732428D01*
X156852523Y-81494333D01*
X156900142Y-81303857D01*
X156947761Y-81208619D01*
X156995380Y-81161000D01*
X157090619Y-81113380D01*
X157804904Y-81208619D02*
X157852523Y-81161000D01*
X157947761Y-81113380D01*
X158185857Y-81113380D01*
X158281095Y-81161000D01*
X158328714Y-81208619D01*
X158376333Y-81303857D01*
X158376333Y-81399095D01*
X158328714Y-81541952D01*
X157757285Y-82113380D01*
X158376333Y-82113380D01*
X159328714Y-82113380D02*
X158757285Y-82113380D01*
X159043000Y-82113380D02*
X159043000Y-81113380D01*
X158947761Y-81256238D01*
X158852523Y-81351476D01*
X158757285Y-81399095D01*
D11*
X143998190Y-75588523D02*
X144355333Y-75588523D01*
X144426761Y-75612333D01*
X144474380Y-75659952D01*
X144498190Y-75731380D01*
X144498190Y-75779000D01*
X144498190Y-75112333D02*
X144498190Y-75350428D01*
X143998190Y-75350428D01*
X144450571Y-74659952D02*
X144474380Y-74683761D01*
X144498190Y-74755190D01*
X144498190Y-74802809D01*
X144474380Y-74874238D01*
X144426761Y-74921857D01*
X144379142Y-74945666D01*
X144283904Y-74969476D01*
X144212476Y-74969476D01*
X144117238Y-74945666D01*
X144069619Y-74921857D01*
X144022000Y-74874238D01*
X143998190Y-74802809D01*
X143998190Y-74755190D01*
X144022000Y-74683761D01*
X144045809Y-74659952D01*
X143998190Y-74302809D02*
X144355333Y-74302809D01*
X144426761Y-74326619D01*
X144474380Y-74374238D01*
X144498190Y-74445666D01*
X144498190Y-74493285D01*
X144498190Y-73826619D02*
X144498190Y-74064714D01*
X143998190Y-74064714D01*
X144450571Y-73374238D02*
X144474380Y-73398047D01*
X144498190Y-73469476D01*
X144498190Y-73517095D01*
X144474380Y-73588523D01*
X144426761Y-73636142D01*
X144379142Y-73659952D01*
X144283904Y-73683761D01*
X144212476Y-73683761D01*
X144117238Y-73659952D01*
X144069619Y-73636142D01*
X144022000Y-73588523D01*
X143998190Y-73517095D01*
X143998190Y-73469476D01*
X144022000Y-73398047D01*
X144045809Y-73374238D01*
X143998190Y-73017095D02*
X144355333Y-73017095D01*
X144426761Y-73040904D01*
X144474380Y-73088523D01*
X144498190Y-73159952D01*
X144498190Y-73207571D01*
X144498190Y-72540904D02*
X144498190Y-72779000D01*
X143998190Y-72779000D01*
X144450571Y-72088523D02*
X144474380Y-72112333D01*
X144498190Y-72183761D01*
X144498190Y-72231380D01*
X144474380Y-72302809D01*
X144426761Y-72350428D01*
X144379142Y-72374238D01*
X144283904Y-72398047D01*
X144212476Y-72398047D01*
X144117238Y-72374238D01*
X144069619Y-72350428D01*
X144022000Y-72302809D01*
X143998190Y-72231380D01*
X143998190Y-72183761D01*
X144022000Y-72112333D01*
X144045809Y-72088523D01*
X143998190Y-71731380D02*
X144355333Y-71731380D01*
X144426761Y-71755190D01*
X144474380Y-71802809D01*
X144498190Y-71874238D01*
X144498190Y-71921857D01*
X144498190Y-71255190D02*
X144498190Y-71493285D01*
X143998190Y-71493285D01*
X144450571Y-70802809D02*
X144474380Y-70826619D01*
X144498190Y-70898047D01*
X144498190Y-70945666D01*
X144474380Y-71017095D01*
X144426761Y-71064714D01*
X144379142Y-71088523D01*
X144283904Y-71112333D01*
X144212476Y-71112333D01*
X144117238Y-71088523D01*
X144069619Y-71064714D01*
X144022000Y-71017095D01*
X143998190Y-70945666D01*
X143998190Y-70898047D01*
X144022000Y-70826619D01*
X144045809Y-70802809D01*
D12*
X151204550Y-72767095D02*
X151367050Y-71467095D01*
X151676574Y-71467095D01*
X151854550Y-71529000D01*
X151962883Y-71652809D01*
X152009312Y-71776619D01*
X152040264Y-72024238D01*
X152017050Y-72209952D01*
X151924193Y-72457571D01*
X151846812Y-72581380D01*
X151707526Y-72705190D01*
X151514074Y-72767095D01*
X151204550Y-72767095D01*
X152489074Y-72395666D02*
X153108122Y-72395666D01*
X152318836Y-72767095D02*
X152914669Y-71467095D01*
X153185502Y-72767095D01*
X153595622Y-71467095D02*
X154338479Y-71467095D01*
X153804550Y-72767095D02*
X153967050Y-71467095D01*
X154593836Y-72395666D02*
X155212883Y-72395666D01*
X154423598Y-72767095D02*
X155019431Y-71467095D01*
X155290264Y-72767095D01*
X151428955Y-73667095D02*
X151676574Y-73667095D01*
X151792645Y-73729000D01*
X151900979Y-73852809D01*
X151931931Y-74100428D01*
X151877764Y-74533761D01*
X151784907Y-74781380D01*
X151645622Y-74905190D01*
X151514074Y-74967095D01*
X151266455Y-74967095D01*
X151150383Y-74905190D01*
X151042050Y-74781380D01*
X151011098Y-74533761D01*
X151065264Y-74100428D01*
X151158122Y-73852809D01*
X151297407Y-73729000D01*
X151428955Y-73667095D01*
X152380741Y-74967095D02*
X152543241Y-73667095D01*
X153123598Y-74967095D01*
X153286098Y-73667095D01*
X154361693Y-74967095D02*
X153742645Y-74967095D01*
X153905145Y-73667095D01*
X155120026Y-74348047D02*
X155042645Y-74967095D01*
X154771812Y-73667095D02*
X155120026Y-74348047D01*
X155638479Y-73667095D01*
D13*
%TO.C,J1*%
X128524000Y-67279000D02*
X143610000Y-67279000D01*
X128524000Y-67279000D02*
X128524000Y-79279000D01*
X128524000Y-79279000D02*
X143610000Y-79279000D01*
X150010190Y-76762000D02*
G75*
G03*
X150010190Y-76762000I-64190J0D01*
G01*
D14*
%TO.C,J2*%
X163305001Y-79818001D02*
X171505001Y-79818001D01*
X171505001Y-79818001D02*
X171505001Y-66698001D01*
X171505001Y-66698001D02*
X163305001Y-66718001D01*
X159105001Y-79818001D02*
X157505001Y-79818001D01*
X157505001Y-79818001D02*
X157505001Y-66718001D01*
X157505001Y-66718001D02*
X159105001Y-66698001D01*
X156995001Y-76768001D02*
X156995001Y-76768001D01*
X156995001Y-76868001D02*
X156995001Y-76868001D01*
X156995001Y-76868001D02*
G75*
G02*
X156995001Y-76768001I0J50000D01*
G01*
X156995001Y-76768001D02*
G75*
G02*
X156995001Y-76868001I0J-50000D01*
G01*
%TO.C,J1*%
D15*
X145481523Y-73702333D02*
X146388666Y-73702333D01*
X146570095Y-73762809D01*
X146691047Y-73883761D01*
X146751523Y-74065190D01*
X146751523Y-74186142D01*
X146751523Y-72432333D02*
X146751523Y-73158047D01*
X146751523Y-72795190D02*
X145481523Y-72795190D01*
X145662952Y-72916142D01*
X145783904Y-73037095D01*
X145844380Y-73158047D01*
%TO.C,J2*%
X160467523Y-73702333D02*
X161374666Y-73702333D01*
X161556095Y-73762809D01*
X161677047Y-73883761D01*
X161737523Y-74065190D01*
X161737523Y-74186142D01*
X160588476Y-73158047D02*
X160528000Y-73097571D01*
X160467523Y-72976619D01*
X160467523Y-72674238D01*
X160528000Y-72553285D01*
X160588476Y-72492809D01*
X160709428Y-72432333D01*
X160830380Y-72432333D01*
X161011809Y-72492809D01*
X161737523Y-73218523D01*
X161737523Y-72432333D01*
%TD*%
M02*
